<svg xmlns="http://www.w3.org/2000/svg" width="1200" height="760" viewBox="0 0 1200 760"><rect width="1200" height="760" rx="24" fill="#e9edf2"/><text x="42" y="58" font-family="Inter,Arial" font-size="30" font-weight="800" fill="#17191e">Nono Ask — Neutral</text><text x="42" y="84" font-family="Inter,Arial" font-size="12" fill="#69717d">CLEAN / CLASSIC OUTLINE / YELLOW DROP · ADAPTIVE DARK SHELL</text><g font-family="Inter,Arial">
<g transform="translate(42 116)"><rect width="540" height="220" rx="18" fill="#17191e" stroke="#ffffff" opacity=".98"/><path d="M0 18q0-18 18-18h504q18 0 18 18" fill="none" stroke="#f06aaa" stroke-width="4"/><text x="18" y="31" font-size="11" font-weight="800" fill="#f06aaa">NONO ASK · IDLE</text><rect x="18" y="49" width="504" height="55" rx="8" fill="#090b0f"/><text x="31" y="75" font-size="18" font-weight="700" fill="#fff">今日はちょっと……。</text><text x="31" y="95" font-size="11" fill="#b6bdc8">Today is a little…</text><g fill="#ffffff0d" stroke="#ffffff55"><rect x="18" y="118" width="110" height="26" rx="13"/><rect x="138" y="118" width="110" height="26" rx="13"/><rect x="258" y="118" width="110" height="26" rx="13"/></g><g font-size="10" fill="#e7e9ed"><text x="36" y="135">Break it down</text><text x="158" y="135">Translate</text><text x="280" y="135">Culture</text></g><rect x="18" y="158" width="370" height="43" rx="9" fill="#080a0e" stroke="#ffffff55"/><text x="31" y="184" font-size="11" fill="#8a929f">Ask meaning, grammar, tone, or culture…</text><rect x="398" y="158" width="124" height="43" rx="9" fill="#f06aaa"/><text x="422" y="184" font-size="11" font-weight="800" fill="#fff">ASK NONO →</text></g>
<g transform="translate(618 116)"><rect width="540" height="220" rx="18" fill="#17191e" stroke="#ffffff55"/><text x="18" y="31" font-size="11" font-weight="800" fill="#f5df26">NONO ASK · FOCUSED</text><rect x="18" y="54" width="504" height="57" rx="9" fill="#090b0f" stroke="#f5df26" stroke-width="3"/><text x="31" y="88" font-size="16" fill="#fff">Why does ちょっと mean no here?</text><rect x="18" y="137" width="370" height="46" rx="9" fill="#080a0e" stroke="#f5df26" stroke-width="3"/><rect x="398" y="137" width="124" height="46" rx="9" fill="#f5df26"/><text x="420" y="165" font-size="11" font-weight="800" fill="#17191e">ASK NONO →</text><text x="18" y="207" font-size="10" fill="#8a929f">ACCENT MATCHES CURRENT SUBTITLE TREATMENT</text></g>
<g transform="translate(42 374)"><rect width="350" height="300" rx="18" fill="#17191e" stroke="#ffffff55"/><text x="18" y="31" font-size="11" font-weight="800" fill="#f06aaa">THINKING</text><g fill="#f06aaa"><circle cx="124" cy="120" r="7"/><circle cx="151" cy="120" r="7" opacity=".6"/><circle cx="178" cy="120" r="7" opacity=".3"/></g><text x="51" y="163" font-size="15" font-weight="700" fill="#fff">Nono is organizing one</text><text x="88" y="186" font-size="15" font-weight="700" fill="#fff">clear teaching moment…</text><text x="48" y="258" font-size="10" fill="#8a929f">PRIVATE CONTEXT · NO USER BUBBLE</text></g>
<g transform="translate(425 374)"><rect width="350" height="300" rx="18" fill="#17191e" stroke="#ff6f9f"/><text x="18" y="31" font-size="11" font-weight="800" fill="#ff6f9f">ERROR</text><rect x="18" y="63" width="314" height="76" rx="9" fill="#471426"/><text x="34" y="94" font-size="14" font-weight="700" fill="#ffd3e2">Nono lost the chalk.</text><text x="34" y="118" font-size="11" fill="#ffc0d7">Please try the question again.</text><rect x="18" y="164" width="314" height="43" rx="9" fill="#080a0e" stroke="#ffffff55"/><rect x="208" y="225" width="124" height="42" rx="9" fill="#ff6f9f"/><text x="239" y="251" font-size="11" font-weight="800" fill="#17191e">RETRY →</text></g>
<g transform="translate(808 374)"><rect width="350" height="300" rx="18" fill="#17191e" stroke="#ffffff55"/><text x="18" y="31" font-size="11" font-weight="800" fill="#f06aaa">BOARD FOLLOW-UP</text><rect x="18" y="66" width="314" height="43" rx="9" fill="#080a0e" stroke="#ffffff55"/><text x="31" y="92" font-size="11" fill="#8a929f">Ask one more question…</text><rect x="208" y="128" width="124" height="42" rx="9" fill="#f06aaa"/><text x="231" y="154" font-size="11" font-weight="800" fill="#fff">ASK AGAIN →</text><path d="M28 215h294" stroke="#ffffff55"/><text x="37" y="244" font-size="12" font-weight="700" fill="#fff">ERASE → THINK → NEW BOARD</text><text x="37" y="267" font-size="10" fill="#8a929f">COMPACT CONTROL-ROW REPLACEMENT</text></g></g></svg>
