<svg xmlns="http://www.w3.org/2000/svg" width="1200" height="760" viewBox="0 0 1200 760"><defs><pattern id="scan" width="4" height="4" patternUnits="userSpaceOnUse"><path d="M0 3.5h4" stroke="#fff" opacity=".025"/></pattern></defs><rect width="1200" height="760" rx="24" fill="#0b0d08"/><rect width="1200" height="760" fill="url(#scan)"/><text x="42" y="58" font-family="Share Tech Mono,monospace" font-size="30" fill="#f0a14a">Nono Ask — Fallout</text><text x="42" y="84" font-family="Share Tech Mono,monospace" font-size="12" fill="#8fa078">AMBER/GREEN TERMINAL · SMOKY DIALOGUE STRIP · PRIVATE QUESTION BUFFER</text><g font-family="Share Tech Mono,monospace" fill="#f0a14a">
<g transform="translate(42 116)"><path d="M0 0h540v220H0z" fill="#11160d" stroke="#f0a14a"/><path d="M0 48h540" stroke="#f0a14a" opacity=".65"/><text x="18" y="30" font-size="13">NONO ASK // IDLE</text><path d="M18 62h504v52H18z" fill="#050704"/><text x="30" y="84" font-size="18">今日はちょっと……。</text><text x="30" y="104" font-size="11" fill="#c7b58a">Today is a little…</text><g fill="none" stroke="#f0a14a"><rect x="18" y="127" width="110" height="25"/><rect x="138" y="127" width="110" height="25"/><rect x="258" y="127" width="110" height="25"/></g><g font-size="10"><text x="35" y="144">BREAKDOWN</text><text x="158" y="144">TRANSLATE</text><text x="281" y="144">CULTURE</text></g><rect x="18" y="165" width="370" height="40" fill="#030403" stroke="#f0a14a"/><text x="30" y="190" font-size="11" fill="#8fa078">TYPE QUESTION…</text><rect x="398" y="165" width="124" height="40" fill="#f0a14a"/><text x="424" y="190" font-size="12" fill="#0b0d08">ASK →</text></g>
<g transform="translate(618 116)"><rect width="540" height="220" fill="#11160d" stroke="#53ff9b" stroke-width="2"/><text x="18" y="30" font-size="13" fill="#53ff9b">NONO ASK // FOCUSED</text><path d="M0 48h540" stroke="#53ff9b"/><rect x="18" y="66" width="504" height="48" fill="#030403" stroke="#53ff9b"/><text x="31" y="96" font-size="16" fill="#53ff9b">WHY DOES CHOTTO MEAN NO HERE?_</text><rect x="18" y="137" width="370" height="44" fill="#030403" stroke="#53ff9b" stroke-width="2"/><rect x="398" y="137" width="124" height="44" fill="#53ff9b"/><text x="424" y="164" font-size="12" fill="#0b0d08">ASK →</text><text x="18" y="207" font-size="10" fill="#8fa078">ACTIVE ACCENT MAY FOLLOW SPEAKER COLOR</text></g>
<g transform="translate(42 374)"><rect width="350" height="300" fill="#11160d" stroke="#f0a14a"/><text x="18" y="30" font-size="13">THINKING…</text><path d="M0 48h350" stroke="#f0a14a"/><text x="68" y="127" font-size="30">▮ ▮ ▮</text><text x="45" y="170" font-size="15">NONO IS ORGANIZING</text><text x="74" y="193" font-size="15">ONE CLEAR LESSON</text><text x="36" y="257" font-size="11" fill="#8fa078">USER QUERY PURGED FROM DISPLAY</text></g>
<g transform="translate(425 374)"><rect width="350" height="300" fill="#11160d" stroke="#f06a72"/><text x="18" y="30" font-size="13" fill="#f06a72">ERROR // SIGNAL LOST</text><path d="M0 48h350" stroke="#f06a72"/><rect x="18" y="70" width="314" height="72" fill="#210d0d"/><text x="35" y="100" font-size="14" fill="#f08b84">LESSON REQUEST FAILED.</text><text x="35" y="123" font-size="11" fill="#c78f86">NO QUESTION WAS SAVED.</text><rect x="18" y="165" width="314" height="42" fill="#030403" stroke="#f0a14a"/><rect x="208" y="224" width="124" height="42" fill="#f0a14a"/><text x="239" y="250" font-size="12" fill="#0b0d08">RETRY →</text></g>
<g transform="translate(808 374)"><rect width="350" height="300" fill="#11160d" stroke="#53ff9b"/><text x="18" y="30" font-size="13" fill="#53ff9b">BOARD FOLLOW-UP</text><path d="M0 48h350" stroke="#53ff9b"/><rect x="18" y="70" width="314" height="42" fill="#030403" stroke="#53ff9b"/><text x="31" y="96" font-size="11" fill="#8fa078">ASK ANOTHER…</text><rect x="208" y="130" width="124" height="42" fill="#53ff9b"/><text x="232" y="156" font-size="12" fill="#0b0d08">SEND →</text><path d="M24 214h302" stroke="#53ff9b" stroke-dasharray="8 5"/><text x="30" y="244" font-size="12">ERASE → THINK → REPLACE</text><text x="30" y="267" font-size="10" fill="#8fa078">NO CHAT LOG / NO DRAWER</text></g></g></svg>
