<svg xmlns="http://www.w3.org/2000/svg" width="1200" height="760" viewBox="0 0 1200 760"><rect width="1200" height="760" rx="24" fill="#02050f"/><text x="42" y="58" font-family="JetBrains Mono,monospace" font-size="28" font-weight="700" fill="#c9e6fa">Nono Ask — Wired</text><text x="42" y="84" font-family="JetBrains Mono,monospace" font-size="11" fill="#5fa8dc">PRIVATE QUERY SIGNAL / CYAN FRAME / SOURCE IN DOTGOTHIC16</text><g font-family="JetBrains Mono,monospace">
<g transform="translate(42 116)"><rect width="540" height="220" fill="#05081c" stroke="#4ac8ff" stroke-width="2"/><path d="M0 38h540" stroke="#4ac8ff"/><text x="18" y="25" font-size="11" font-weight="700" fill="#4ac8ff">NONO ASK::IDLE</text><text x="415" y="25" font-size="9" fill="#5fa8dc">SEGMENT LOCKED</text><rect x="16" y="52" width="508" height="55" fill="#0b2944"/><text x="28" y="76" font-family="DotGothic16,monospace" font-size="18" fill="#c9e6fa">今日はちょっと……。</text><path d="M28 84h480" stroke="#5fa8dc" opacity=".45"/><text x="28" y="101" font-size="10" fill="#fff">Today is a little…</text><g fill="#071026" stroke="#4ac8ff" opacity=".9"><rect x="16" y="120" width="112" height="25"/><rect x="136" y="120" width="112" height="25"/><rect x="256" y="120" width="112" height="25"/></g><g font-size="9" fill="#c9e6fa"><text x="28" y="137">BREAK_DOWN</text><text x="150" y="137">TRANSLATE</text><text x="271" y="137">CULTURE</text></g><rect x="16" y="159" width="370" height="42" fill="#030617" stroke="#4ac8ff"/><text x="28" y="184" font-size="11" fill="#63718a">enter query_</text><rect x="396" y="159" width="128" height="42" fill="#4ac8ff"/><text x="421" y="184" font-size="11" font-weight="700" fill="#02050f">ASK_NONO →</text></g>
<g transform="translate(618 116)"><rect width="540" height="220" fill="#05081c" stroke="#4ac8ff" stroke-width="3"/><text x="18" y="28" font-size="11" fill="#4ac8ff">NONO ASK::FOCUSED</text><path d="M0 40h540" stroke="#4ac8ff"/><rect x="16" y="58" width="508" height="58" fill="#0b2944" stroke="#4ac8ff"/><text x="30" y="91" font-size="15" fill="#fff">Why does ちょっと mean no here?_</text><rect x="16" y="138" width="370" height="46" fill="#030617" stroke="#4ac8ff" stroke-width="3"/><rect x="396" y="138" width="128" height="46" fill="#4ac8ff"/><text x="421" y="166" font-size="11" font-weight="700" fill="#02050f">ASK_NONO →</text><text x="18" y="207" font-size="9" fill="#5fa8dc">QUESTION BUFFER CLEARS ON TRANSMIT</text></g>
<g transform="translate(42 374)"><rect width="350" height="300" fill="#05081c" stroke="#4ac8ff"/><text x="16" y="28" font-size="11" fill="#4ac8ff">THINKING::GPT-5.6</text><path d="M0 40h350" stroke="#4ac8ff"/><g fill="#4ac8ff"><rect x="92" y="105" width="14" height="14"/><rect x="120" y="105" width="14" height="14" opacity=".6"/><rect x="148" y="105" width="14" height="14" opacity=".25"/></g><text x="40" y="160" font-size="13" fill="#c9e6fa">assembling teaching signal…</text><text x="40" y="188" font-size="10" fill="#5fa8dc">NO MESSAGE LOG / PRIVATE THREAD</text></g>
<g transform="translate(425 374)"><rect width="350" height="300" fill="#05081c" stroke="#ff6f9f"/><text x="16" y="28" font-size="11" fill="#ff6f9f">ERROR::RETRYABLE</text><path d="M0 40h350" stroke="#ff6f9f"/><rect x="18" y="62" width="314" height="70" fill="#28101d" stroke="#ff6f9f"/><text x="34" y="90" font-size="12" fill="#ffd2e1">LESSON SIGNAL LOST</text><text x="34" y="113" font-size="10" fill="#ff9dbc">Question remains in memory only.</text><rect x="18" y="155" width="314" height="43" fill="#030617" stroke="#4ac8ff"/><rect x="204" y="216" width="128" height="43" fill="#ff6f9f"/><text x="238" y="242" font-size="11" fill="#02050f">RETRY →</text></g>
<g transform="translate(808 374)"><rect width="350" height="300" fill="#05081c" stroke="#4ac8ff"/><text x="16" y="28" font-size="11" fill="#4ac8ff">BOARD::FOLLOW_UP</text><path d="M0 40h350" stroke="#4ac8ff"/><rect x="18" y="64" width="314" height="43" fill="#030617" stroke="#4ac8ff"/><text x="31" y="90" font-size="10" fill="#63718a">ask another_</text><rect x="204" y="124" width="128" height="43" fill="#4ac8ff"/><text x="225" y="150" font-size="11" fill="#02050f">TRANSMIT →</text><path d="M20 207h312" stroke="#5fa8dc"/><text x="24" y="235" font-size="11" fill="#c9e6fa">ERASE / THINK / REPLACE</text><text x="24" y="258" font-size="9" fill="#5fa8dc">INLINE CONTROL ROW · NO DRAWER</text></g></g></svg>
